<?xml version="1.0" encoding="utf-8"?>
<!-- Generator: Adobe Illustrator 26.0.3, SVG Export Plug-In . SVG Version: 6.00 Build 0)  -->
<svg version="1.1" id="Слой_1" xmlns="http://www.w3.org/2000/svg" xmlns:xlink="http://www.w3.org/1999/xlink" x="0px" y="0px"
	 viewBox="0 0 2000 2000" style="enable-background:new 0 0 2000 2000;" xml:space="preserve">
<style type="text/css">
	.st0{fill:#FFBC00;stroke:#000000;stroke-miterlimit:10;}
</style>
<path class="st0" d="M1575,1591.6c-70.1,29.4-1161.5,1.9-1161.5,1.9s-43.9-14.4-30.2-60.2L971.8,513.1c0,0,42.2-43.4,68.9,0
	s572.8,989,572.8,989S1645.1,1562.2,1575,1591.6z"/>
<g transform="translate(0.000000,2000.000000) scale(0.100000,-0.100000)">
	<path d="M9901,17085c-35-8-107-35-159-61c-83-40-109-60-187-138l-90-91l-3685-6384C3753,6900,2080,3998,2062,3963
		c-96-187-101-442-12-640c91-202,266-351,487-415l78-23h7300h7300l89,23c334,85,580,322,683,659c24,80,27,102,27,253s-3,172-28,255
		c-15,50-49,131-75,180c-122,232-7230,12528-7273,12582c-87,111-239,206-386,244C10162,17104,9998,17106,9901,17085z M10254,15012
		c140-65-101,339,3013-5057c1559-2701,2850-4940,2868-4976c47-91,67-177,67-284c0-282-174-517-452-611c-54-18-212-19-5835-19H4135
		l-68,32c-219,104-323,356-234,570c24,59,5818,10102,5885,10202c46,69,127,129,211,159c56,19,81,22,162,19
		C10173,15044,10197,15039,10254,15012z"/>
	<path d="M9845,13029c-304-42-591-267-705-553c-70-175-65,44-65-2651V7395l22-88c81-316,300-549,613-653c80-27,95-28,260-28
		s180,1,260,28c153,51,263,118,371,225c118,118,199,263,242,428l22,88v2425c0,2267-1,2430-17,2503c-40,180-114,313-248,447
		c-111,111-211,175-345,219C10113,13036,9984,13049,9845,13029z"/>
	<path d="M9851,6160c-198-28-374-117-518-262c-428-433-305-1159,241-1427c152-75,201-86,396-86c184,0,239,11,367,70
		c565,261,706,983,279,1433c-161,170-368,264-603,276C9959,6167,9886,6165,9851,6160z"/>
</g>
</svg>
